<svg width="268" height="98" viewBox="0 0 268 98" fill="none" xmlns="http://www.w3.org/2000/svg">
<rect width="33" height="12" transform="translate(16 16)" fill="white"/>
<path d="M26.6562 26.5498C26.6602 26.5498 26.6642 26.5439 26.6642 26.5439C26.696 26.5203 26.7279 26.4909 26.7558 26.4556C26.7518 26.4556 26.7478 26.4556 26.7438 26.4498C26.7159 26.4792 26.6841 26.5145 26.6562 26.5498Z" fill="#00008F"/>
<path d="M31.0694 25.0629L30.9997 25.1229C31.0396 25.1129 31.0694 25.1029 31.0694 25.0629Z" fill="#00008F"/>
<path fill-rule="evenodd" clip-rule="evenodd" d="M29.6426 26.5817C29.7704 26.4532 29.8983 26.3168 30.0261 26.1765H30.0222C30.2624 25.9038 30.4948 25.6428 30.7737 25.4051C30.8589 25.3272 30.9402 25.261 31.0177 25.2064C31.0291 25.195 31.0349 25.1779 31.0406 25.1612C31.0465 25.1438 31.0523 25.1268 31.0642 25.1168C31.009 25.1379 30.965 25.1712 30.9207 25.2047C30.8749 25.2394 30.8289 25.2742 30.7698 25.296C30.7466 25.296 30.7233 25.2727 30.7466 25.2493C30.8279 25.1908 30.9092 25.1285 30.9867 25.0662H30.9712C30.948 25.0662 30.948 25.0428 30.948 25.0194C30.6596 24.9736 30.4381 25.1708 30.2399 25.3473L30.2275 25.3584C30.1966 25.3739 30.1675 25.3585 30.1446 25.3464C30.133 25.3403 30.123 25.335 30.1152 25.335C29.9398 25.3938 29.7885 25.5022 29.6362 25.6114C29.4959 25.7119 29.3548 25.813 29.1933 25.8765V25.8298C29.1384 25.8487 29.0842 25.8734 29.0298 25.8981C28.9498 25.9345 28.8696 25.971 28.7865 25.9895C28.6349 26.0247 28.4943 26.0202 28.358 26.0158C28.3133 26.0143 28.2689 26.0129 28.2249 26.0129C27.9768 26.0375 27.7319 26.0906 27.4872 26.1437L27.4076 26.161C27.4037 26.1629 27.3998 26.1639 27.3959 26.1649C27.3921 26.1658 27.3882 26.1668 27.3843 26.1688C27.2371 26.2077 27.1016 26.2623 26.966 26.3402L26.9505 26.348C26.9452 26.3551 26.9398 26.3614 26.9349 26.3673C26.929 26.3743 26.9237 26.3806 26.9195 26.3869C26.873 26.4415 26.8304 26.4882 26.7646 26.5233C26.6673 26.5722 26.5832 26.6476 26.5005 26.7219C26.4647 26.754 26.429 26.7861 26.3927 26.8155C26.385 26.8233 26.3695 26.8272 26.3578 26.8272C26.2378 26.9441 26.1177 27.061 25.9937 27.1739C25.986 27.1817 25.9511 27.1856 25.924 27.1817C25.924 27.1817 25.9279 27.1817 25.9279 27.1778L25.9395 27.1545L25.9976 27.061C26.0092 27.0434 26.0199 27.0259 26.0305 27.0084C26.0412 26.9908 26.0518 26.9733 26.0634 26.9558C26.0944 26.909 26.1255 26.8622 26.1603 26.8194C26.168 26.8077 26.168 26.796 26.1603 26.7882C26.1525 26.7804 26.1409 26.7765 26.1293 26.7765C26.2416 26.6675 26.3733 26.5739 26.5089 26.4921V26.4882C26.4934 26.4921 26.4702 26.4804 26.4818 26.4649C26.4932 26.4506 26.5024 26.4342 26.5112 26.4188L26.5205 26.4025C26.5225 26.3986 26.5234 26.3957 26.5244 26.3928C26.5254 26.3899 26.5263 26.3869 26.5283 26.383C26.5263 26.3791 26.5234 26.3762 26.5205 26.3733C26.5176 26.3704 26.5147 26.3675 26.5128 26.3636L26.4893 26.3791C26.4612 26.3974 26.4324 26.4163 26.4082 26.4376C26.3911 26.4523 26.3751 26.4725 26.3588 26.4932C26.3232 26.5382 26.2857 26.5856 26.23 26.5856C26.2261 26.5856 26.2068 26.5856 26.1952 26.5817C26.1835 26.5817 26.1758 26.5778 26.1719 26.5739C26.1719 26.572 26.1719 26.571 26.1724 26.5705C26.1729 26.57 26.1738 26.57 26.1758 26.57C26.1758 26.57 26.1797 26.5662 26.1797 26.5623C26.1797 26.5623 26.1797 26.5584 26.1835 26.5584C26.1855 26.5545 26.1874 26.5515 26.1893 26.5486C26.1913 26.5457 26.1932 26.5428 26.1952 26.5389C26.1971 26.535 26.199 26.5321 26.201 26.5291C26.2029 26.5262 26.2048 26.5233 26.2068 26.5194C26.2087 26.5175 26.2097 26.5145 26.2106 26.5116C26.2116 26.5087 26.2126 26.5058 26.2145 26.5038L26.2189 26.4958C26.2227 26.4889 26.2273 26.4808 26.23 26.4726C26.2319 26.4688 26.2339 26.4658 26.2358 26.4629C26.2378 26.46 26.2397 26.4571 26.2416 26.4532C26.2474 26.4454 26.2523 26.4366 26.2571 26.4278C26.262 26.4191 26.2668 26.4103 26.2726 26.4025C26.2765 26.3947 26.2804 26.3869 26.2881 26.3791C26.292 26.3713 26.2959 26.3645 26.2997 26.3577C26.3036 26.3509 26.3075 26.3441 26.3114 26.3363C26.323 26.3168 26.3114 26.3012 26.2959 26.2973C26.3385 26.2428 26.3888 26.196 26.4508 26.161H26.4431C26.4965 26.1341 26.5515 26.1026 26.6062 26.0713C26.6384 26.0528 26.671 26.0341 26.7026 26.0168C26.7142 26.0051 26.7258 25.9934 26.7413 25.9856C26.6135 26.0285 26.4973 26.0869 26.385 26.1649C26.385 26.1649 26.354 26.1765 26.3462 26.1843C26.3462 26.1843 26.323 26.1921 26.292 26.1649C26.2881 26.161 26.2881 26.1571 26.2881 26.1493C26.3016 26.1222 26.3293 26.1043 26.3594 26.0849C26.3812 26.0708 26.4041 26.056 26.4237 26.0363C26.4469 26.0363 26.4663 26.0363 26.4663 26.0597C26.9124 25.7099 27.4625 25.6289 28.0144 25.5477C28.3539 25.4978 28.6941 25.4478 29.0112 25.335C29.0441 25.3116 29.078 25.2892 29.1119 25.2668C29.1458 25.2444 29.1797 25.222 29.2126 25.1986C29.2691 25.1751 29.3198 25.1348 29.3734 25.0922C29.4263 25.0501 29.4822 25.0056 29.5496 24.9727C29.7278 24.8363 29.8634 24.6805 29.9331 24.4506C29.9331 24.4272 29.9099 24.4038 29.9099 24.4038C29.6155 24.7194 29.2785 24.9688 28.9182 25.1519C28.5747 25.3331 28.2067 25.36 27.8423 25.3866C27.7054 25.3966 27.569 25.4065 27.4347 25.4246C27.4579 25.3778 27.5044 25.3779 27.547 25.3779C27.547 25.3225 27.5735 25.2987 27.6075 25.2682C27.6166 25.26 27.6263 25.2514 27.6361 25.2415H27.702C27.7136 25.2415 27.7194 25.2298 27.7252 25.2181C27.731 25.2064 27.7368 25.1947 27.7484 25.1947C27.7949 25.1947 27.8608 25.1714 27.8375 25.1714C27.802 25.1257 27.7504 25.1438 27.6934 25.1637C27.6386 25.1829 27.5789 25.2038 27.5238 25.1714C27.5443 25.1489 27.5504 25.1219 27.556 25.0974C27.5621 25.0708 27.5675 25.0471 27.5896 25.035H27.6787C27.6787 24.9882 27.7252 24.9454 27.7252 24.9454C27.9272 24.8239 28.1223 24.7179 28.3137 24.6138C28.4416 24.5443 28.568 24.4756 28.6936 24.4038C28.6682 24.4038 28.6456 24.4143 28.6238 24.4244C28.589 24.4406 28.5558 24.4559 28.5154 24.4272C28.5386 24.4272 28.5386 24.4107 28.5386 24.3941C28.5386 24.3775 28.5386 24.361 28.5619 24.361C28.7072 24.3222 28.8365 24.2592 28.9686 24.195C29.0619 24.1496 29.1565 24.1036 29.2591 24.0649C29.2287 24.0649 29.2005 24.0731 29.173 24.0811C29.1201 24.0964 29.0699 24.111 29.0112 24.0649C29.0266 24.0571 29.039 24.0473 29.0513 24.0375C29.076 24.0178 29.1002 23.9986 29.1468 23.9986V23.9324C29.1468 23.909 29.17 23.909 29.1933 23.909C29.17 23.909 29.1468 23.8857 29.1468 23.8857C29.1591 23.8609 29.1833 23.8558 29.2103 23.8501C29.2343 23.8451 29.2605 23.8396 29.2824 23.8194C29.2591 23.8194 29.2165 23.8194 29.2165 23.796C29.2824 23.7064 29.3947 23.6831 29.507 23.6597C29.4954 23.6363 29.4731 23.6363 29.4538 23.6363C29.4344 23.6363 29.4179 23.6363 29.4179 23.6129C29.4179 23.5896 29.4412 23.5896 29.4644 23.5896H29.4179C29.3815 23.5712 29.3879 23.5385 29.3924 23.5158C29.3936 23.5096 29.3947 23.5041 29.3947 23.4999C29.4857 23.3927 29.5156 23.2662 29.5454 23.1404C29.5599 23.0788 29.5745 23.0173 29.5961 22.9584C29.5729 22.9584 29.5496 22.9584 29.5496 22.935C29.3318 23.1767 28.9866 23.2683 28.6587 23.3554L28.6277 23.3636H28.5154C28.4031 23.4103 28.2443 23.4103 28.1319 23.3402C28.0785 23.3122 28.0404 23.2771 27.9993 23.2393C27.9718 23.214 27.9429 23.1875 27.9073 23.161C27.7252 23.048 27.547 22.9584 27.3456 22.8883C26.7839 22.709 26.199 22.6155 25.6141 22.6389C25.7775 22.5491 25.9509 22.5133 26.1266 22.4771C26.2176 22.4584 26.3093 22.4395 26.4004 22.4129C26.458 22.396 26.515 22.3785 26.5716 22.3611C26.8929 22.2626 27.2046 22.1671 27.547 22.187C27.5022 22.1711 27.4448 22.1768 27.392 22.1821C27.3672 22.1846 27.3434 22.187 27.3224 22.187C27.0634 22.1677 26.8019 22.2253 26.529 22.2855C26.4712 22.2982 26.4129 22.3111 26.354 22.3233C26.2471 22.3456 26.1455 22.3775 26.0437 22.4095C25.9315 22.4448 25.8191 22.4801 25.6993 22.5025C25.6474 22.5205 25.6056 22.551 25.565 22.5807C25.4996 22.6285 25.437 22.6743 25.3391 22.6623V22.5922C25.5638 22.3194 25.8349 22.0506 26.1952 22.0272C26.5434 21.9705 26.8717 22.0109 27.2142 22.053C27.2718 22.0601 27.3297 22.0673 27.3882 22.074C27.669 22.0966 27.9317 22.1592 28.2148 22.2267L28.2443 22.2337C28.3062 22.2337 28.3411 22.2883 28.3748 22.3411C28.4023 22.384 28.429 22.4258 28.4689 22.4363C28.5241 22.4553 28.5792 22.4589 28.6344 22.4624C28.7148 22.4676 28.7952 22.4728 28.8756 22.5259C28.8756 22.5102 28.873 22.4949 28.8704 22.4798C28.8653 22.4499 28.8602 22.4206 28.8756 22.3896C28.9256 22.3393 28.9829 22.3528 29.0393 22.3661C29.0834 22.3764 29.127 22.3867 29.1662 22.3662C29.289 22.29 29.1738 22.1729 29.0585 22.0558C29.0029 21.9993 28.9472 21.9428 28.9182 21.8909C28.9182 21.8675 28.9415 21.8441 28.9415 21.8441C28.9924 21.8897 29.0398 21.9369 29.0867 21.9837C29.2043 22.1008 29.3194 22.2153 29.4799 22.2961C29.5922 22.3428 29.8634 22.409 29.8169 22.2727C29.7373 22.0961 29.6014 21.9429 29.4642 21.7883C29.4077 21.7246 29.351 21.6607 29.2979 21.5948V21.5052C29.2625 21.5052 29.2541 21.4917 29.2435 21.4749C29.2402 21.4696 29.2367 21.464 29.232 21.4584V21.3688C29.1752 21.339 29.1625 21.2918 29.1497 21.2443C29.1424 21.2173 29.1351 21.1902 29.1197 21.1662C29.0808 21.1033 29.0781 21.0259 29.0752 20.946C29.0729 20.8825 29.0705 20.8175 29.0499 20.7571C29.0035 20.6207 28.9841 20.5078 28.9609 20.3714C28.9356 20.2319 28.9079 20.0985 28.8807 19.9679C28.8328 19.7374 28.7866 19.5157 28.7594 19.2844C28.7236 18.9538 28.8905 18.6743 29.0612 18.3885C29.1118 18.3037 29.1627 18.2185 29.2088 18.1312C29.3676 17.8584 29.5458 17.5896 29.8401 17.4065C29.9044 17.1405 30.0791 16.919 30.253 16.6985L30.2662 16.6818C30.4379 16.4679 30.7245 16.3371 30.9357 16.2408L30.9596 16.2299C31.2734 16.0896 31.5561 16 31.56 16H16V27.996H27.0396C27.3348 27.782 27.6283 27.6469 27.9775 27.4862C28.1369 27.4129 28.3079 27.3342 28.496 27.2402C28.5359 27.2201 28.5832 27.1968 28.6357 27.171C28.951 27.0159 29.4534 26.7687 29.6426 26.5817ZM26.1396 24.9633C26.0958 24.9677 26.0494 24.9723 26.0669 24.9372C26.0832 24.8583 26.1639 24.8347 26.2428 24.8116C26.2765 24.8017 26.31 24.7919 26.3378 24.7779L26.3505 24.7714L26.3598 24.7664C26.4035 24.7432 26.457 24.7148 26.4965 24.7313C26.5231 24.7692 26.5561 24.779 26.5881 24.7884C26.612 24.7955 26.6353 24.8024 26.6551 24.8207C26.5714 24.9047 26.4737 24.913 26.3747 24.9214C26.3089 24.9269 26.2425 24.9326 26.1791 24.9605C26.1678 24.9605 26.1538 24.9619 26.1396 24.9633ZM22.7126 24.4154C22.7126 24.4388 22.7359 24.4622 22.7359 24.4622C23.2782 23.8505 23.7701 23.3284 24.4673 22.8959C24.486 22.8881 24.4791 22.8979 24.4698 22.9109C24.4561 22.9302 24.4373 22.9567 24.4906 22.9427C24.7214 22.8901 24.8251 22.6923 24.9259 22.5C24.952 22.4502 24.9779 22.4008 25.0058 22.3544C25.1115 22.1823 25.2618 22.0721 25.4132 21.9611C25.5223 21.881 25.6321 21.8004 25.7262 21.696C25.7262 21.7193 25.7262 21.7427 25.703 21.7661C25.7262 21.7895 25.7495 21.7895 25.7727 21.7895C25.8136 21.7586 25.8582 21.7459 25.901 21.7336C25.9555 21.718 26.007 21.7033 26.0439 21.6531C25.8657 21.583 25.6372 21.5596 25.459 21.6297C24.9864 21.8557 24.5836 22.218 24.2001 22.6271C23.9677 22.8726 23.7275 23.1024 23.4331 23.2622C23.2317 23.6674 23.007 24.0297 22.7126 24.4154ZM24.6037 22.9664C24.5916 22.9908 24.5794 23.0035 24.5678 23.0156C24.5573 23.0266 24.5471 23.0372 24.5379 23.0557C24.5147 23.1023 24.4915 23.1217 24.4489 23.145C24.4257 23.145 24.4025 23.145 24.4025 23.1217C24.4257 23.0324 24.4915 22.9431 24.5805 22.9198C24.6037 22.9237 24.6037 22.947 24.6037 22.9664ZM25.5942 26.4264C25.6136 26.4069 25.6368 26.3835 25.6484 26.3601C25.6677 26.3134 25.5478 26.3251 25.5284 26.3368C25.5109 26.3509 25.4997 26.365 25.4862 26.3821L25.482 26.3874C25.4659 26.406 25.447 26.4232 25.4278 26.4406C25.4148 26.4525 25.4016 26.4644 25.3891 26.477C25.3349 26.5316 25.2808 26.5861 25.2227 26.6368C25.184 26.6718 25.3078 26.6874 25.3349 26.664C25.3659 26.6407 25.393 26.6134 25.4201 26.5861C25.4304 26.5861 25.4407 26.5844 25.4476 26.5832L25.4523 26.5825L25.4549 26.5822C25.5191 26.5607 25.5668 26.516 25.6132 26.4726L25.6252 26.4614C25.6407 26.4459 25.6213 26.4303 25.5942 26.4264ZM25.244 26.173C25.2436 26.1731 25.2433 26.1732 25.243 26.1734C25.2426 26.1739 25.2426 26.1749 25.2426 26.1768C25.2188 26.1931 25.1953 26.2097 25.1719 26.2263C25.1114 26.2691 25.0512 26.3117 24.9869 26.3483C24.9255 26.3829 24.8625 26.4128 24.7989 26.4429C24.7623 26.4603 24.7255 26.4778 24.6886 26.4963C24.6886 26.4963 24.6886 26.4924 24.6848 26.4924C24.677 26.4807 24.6615 26.4768 24.646 26.4846C24.5608 26.5314 24.4872 26.5937 24.4214 26.6599C24.4097 26.6677 24.3981 26.6794 24.3904 26.6911L24.3555 26.7262V26.7301C24.34 26.7457 24.3245 26.7612 24.3052 26.7846C24.3011 26.7887 24.298 26.7927 24.2951 26.7966C24.2895 26.8039 24.2843 26.8107 24.2742 26.8158C24.2587 26.8236 24.2199 26.8236 24.2238 26.8002V26.7963C24.2122 26.8041 24.1967 26.8119 24.1851 26.8158C24.1793 26.8197 24.1735 26.8226 24.1677 26.8255C24.1618 26.8284 24.156 26.8314 24.1502 26.8353C24.1463 26.8314 24.1386 26.8314 24.1347 26.8314C24.1309 26.8314 24.1231 26.8314 24.1192 26.8353C24.1102 26.8431 24.1012 26.8504 24.0921 26.8578C24.074 26.8725 24.056 26.8872 24.0379 26.9054C23.9914 26.9483 23.9488 26.995 23.9062 27.0457C23.9062 27.0457 23.9062 27.0495 23.9023 27.0495C23.9023 27.0515 23.9013 27.0525 23.9004 27.0534C23.8994 27.0544 23.8984 27.0554 23.8984 27.0573L23.8907 27.0651C23.8892 27.0666 23.8883 27.0681 23.8875 27.0694C23.8863 27.0714 23.8853 27.0729 23.8829 27.0729L23.8791 27.0768C23.8752 27.0846 23.8713 27.0924 23.8636 27.1002C23.8597 27.1041 23.852 27.108 23.8442 27.108C23.8403 27.1041 23.8365 27.1002 23.8365 27.0963C23.8345 27.0944 23.8336 27.0924 23.8326 27.0905C23.8316 27.0885 23.8307 27.0866 23.8287 27.0846C23.8248 27.0788 23.8219 27.0729 23.819 27.0671C23.8161 27.0612 23.8132 27.0554 23.8094 27.0495V27.0457C23.8094 27.0437 23.8084 27.0418 23.8074 27.0398C23.8064 27.0379 23.8055 27.0359 23.8055 27.034L23.8752 26.9521L23.8791 26.9483C23.8829 26.9444 23.8868 26.9395 23.8907 26.9346C23.8946 26.9298 23.8984 26.9249 23.9023 26.921C23.9081 26.9132 23.9149 26.9054 23.9217 26.8976C23.9285 26.8898 23.9352 26.882 23.9411 26.8742C23.943 26.8703 23.9449 26.8674 23.9469 26.8645C23.9488 26.8616 23.9507 26.8586 23.9527 26.8547C23.9759 26.8236 23.9992 26.7924 24.0224 26.7573V26.7534C24.0263 26.7496 24.0301 26.7457 24.0301 26.7379C24.0418 26.7223 24.0534 26.7067 24.0611 26.6911L24.0844 26.6444V26.6405L24.0882 26.6366C24.0882 26.6346 24.0892 26.6336 24.0902 26.6327C24.0912 26.6317 24.0921 26.6307 24.0921 26.6288C24.096 26.619 24.0999 26.6103 24.1037 26.6015C24.1076 26.5928 24.1115 26.584 24.1154 26.5742V26.5703L24.1192 26.5547C24.1212 26.5509 24.1221 26.547 24.1231 26.5431C24.1241 26.5392 24.125 26.5353 24.127 26.5314V26.5275C24.1289 26.5216 24.1299 26.5158 24.1309 26.5099C24.1318 26.5041 24.1328 26.4983 24.1347 26.4924C24.1347 26.4885 24.1347 26.4807 24.1309 26.4768C24.1541 26.434 24.1851 26.395 24.2199 26.356C24.218 26.356 24.2161 26.357 24.2141 26.358C24.213 26.3586 24.2119 26.3591 24.2108 26.3595C24.21 26.3598 24.2092 26.3599 24.2083 26.3599C24.1911 26.3708 24.1762 26.3852 24.1611 26.4C24.1491 26.4117 24.1369 26.4236 24.1231 26.434C24.0999 26.4535 24.0534 26.4223 24.0844 26.3989C24.1037 26.3833 24.1192 26.3677 24.1347 26.3522C24.1347 26.3522 24.1347 26.3483 24.1386 26.3483C24.154 26.3343 24.1689 26.3184 24.1838 26.3025C24.2064 26.2784 24.2292 26.254 24.2548 26.2353C24.2819 26.2158 24.3013 26.2002 24.3245 26.1807C24.3284 26.1768 24.3323 26.1729 24.3362 26.1729C24.3516 26.1535 24.3671 26.134 24.3865 26.1145C24.3865 26.1145 24.3904 26.1145 24.3904 26.1106C24.5234 25.9816 24.7103 25.9361 24.9011 25.8896C25.0214 25.8603 25.1433 25.8307 25.2542 25.7794C25.3168 25.7534 25.3866 25.7636 25.4556 25.7738C25.5104 25.7818 25.5647 25.7898 25.6144 25.7794C25.6803 25.7794 25.75 25.7794 25.8158 25.8262C25.6627 25.9077 25.5165 26.001 25.3719 26.0933C25.33 26.12 25.2882 26.1467 25.2464 26.1729C25.2454 26.1729 25.2446 26.1729 25.244 26.173ZM25.7281 24.5851C25.7099 24.5872 25.6982 24.5885 25.7082 24.5986C25.7741 24.6649 25.9097 24.6415 26.0026 24.5909C26.0685 24.5441 26.1382 24.5441 26.2273 24.5441C26.2505 24.5441 26.2505 24.5012 26.2505 24.4779C26.3164 24.5012 26.3629 24.5012 26.4287 24.5012C26.9671 24.3883 27.4862 24.2753 27.982 24.0259C27.4803 23.6383 26.8618 23.4656 26.256 23.2965C26.1555 23.2684 26.0554 23.2405 25.9561 23.2116C25.978 23.2116 25.9998 23.2189 26.0217 23.2262C26.066 23.241 26.1109 23.2559 26.1576 23.2116C26.0961 23.1626 26.0277 23.1532 25.9599 23.144C25.9038 23.1363 25.8482 23.1286 25.7973 23.0987C25.8026 23.0987 25.809 23.0999 25.8158 23.1012C25.839 23.1057 25.8685 23.1114 25.8864 23.0753C25.7688 23.0161 25.6511 22.996 25.5323 22.9757C25.4712 22.9653 25.4098 22.9548 25.348 22.9389C25.4603 22.9155 25.5301 22.8259 25.5301 22.7129C25.5301 22.6896 25.4836 22.6896 25.4603 22.6896C25.1931 22.8259 25.011 23.0753 24.8987 23.3675C24.9999 23.4271 25.1091 23.4202 25.2161 23.4134C25.2769 23.4096 25.3369 23.4058 25.3945 23.4142C25.3437 23.4625 25.2703 23.4756 25.1997 23.4882C25.1734 23.4929 25.1475 23.4975 25.1233 23.5038C25.0536 23.5194 24.9878 23.5701 25.011 23.6168C25.0265 23.6363 25.042 23.6441 25.0614 23.648C25.011 23.6636 24.9645 23.687 24.9219 23.7298C24.9857 23.78 25.0514 23.7703 25.1163 23.7608C25.1421 23.757 25.1677 23.7532 25.1931 23.7532C25.1931 23.7815 25.2116 23.7911 25.2309 23.8011C25.2409 23.8062 25.251 23.8115 25.2589 23.8194C25.1466 23.8623 25.0575 23.9558 25.0342 24.022C25.0065 24.0895 24.9552 24.1334 24.9044 24.1768C24.8701 24.2062 24.8361 24.2353 24.8096 24.2714V24.3415C24.7347 24.4078 24.6578 24.4671 24.582 24.5255C24.4262 24.6455 24.2748 24.7621 24.155 24.9298C24.1782 24.9298 24.1782 24.9532 24.1782 24.9766C24.1568 25.0089 24.1263 25.0313 24.0974 25.0525C24.0636 25.0774 24.0319 25.1006 24.0194 25.1363C24.0194 25.1597 24.0194 25.1831 24.0426 25.1831C24.1848 25.1361 24.3077 25.057 24.4283 24.9794C24.5377 24.9091 24.6452 24.84 24.7631 24.7973C24.8595 24.7742 24.9434 24.7305 25.0253 24.6878C25.0948 24.6516 25.1628 24.6162 25.2357 24.5947C25.2918 24.5831 25.3538 24.5665 25.4158 24.5499C25.4778 24.5334 25.5397 24.5168 25.5959 24.5051C25.5959 24.5285 25.5959 24.5519 25.6192 24.5519H25.7973C25.7864 24.5784 25.7518 24.5824 25.7281 24.5851Z" fill="#00008F"/>
<path d="M49 16H36.0966C36.0966 16 36.12 16.0039 36.2175 16.0546C36.3228 16.1092 36.4594 16.1834 36.5413 16.2263C36.709 16.3121 36.8689 16.4213 36.9743 16.5891C37.0211 16.6554 37.0874 16.7919 37.0445 16.8817C36.9977 16.9948 36.9743 17.1782 36.8611 17.2211C36.7246 17.2913 36.5452 17.2913 36.3853 17.2679C36.2955 17.2679 36.2058 17.2445 36.1122 17.2211C36.4516 17.3576 36.7714 17.5176 36.9977 17.8336C37.0211 17.8804 37.1108 17.8999 37.2005 17.8999C37.2239 17.8999 37.2239 17.9467 37.2239 17.9662C37.1771 18.013 37.1342 18.0364 37.1576 18.1027H37.2239C37.337 18.0559 37.3136 17.8296 37.4735 17.8999C37.5867 17.9662 37.6335 18.1261 37.5633 18.2393C37.4735 18.329 37.3838 18.3992 37.2902 18.4655C37.2668 18.5124 37.2668 18.5787 37.2902 18.6255C37.3565 18.7152 37.3799 18.8049 37.4033 18.8986C37.4735 19.0585 37.493 19.238 37.5633 19.3979C37.653 19.7373 37.7427 20.0767 37.7232 20.42C37.7232 20.5995 37.6335 20.7594 37.6998 20.9428C37.7466 21.1222 37.8597 21.2588 37.9494 21.4187C38.0391 21.5553 38.1288 21.645 38.1991 21.7815C38.3356 22.0078 38.5852 22.2341 38.4721 22.5072C38.4058 22.6671 38.1562 22.6437 37.9962 22.7334C37.8597 22.8466 37.9728 23.0299 38.043 23.143C38.1562 23.3459 37.9065 23.4824 37.7466 23.5527C37.7934 23.6229 37.8831 23.5995 37.9065 23.6424C37.9299 23.7555 38.043 23.8218 37.9728 23.9389C37.8831 24.0754 37.6101 24.1417 37.7466 24.3485C37.8363 24.5085 37.7778 24.684 37.7232 24.8479C37.6569 25.0507 37.4735 25.1404 37.3136 25.1873C37.1771 25.2341 37.0172 25.2341 36.8845 25.2107C36.8377 25.1873 36.7948 25.1638 36.748 25.1638C36.3618 25.117 35.9757 25.0078 35.5934 25.0078C35.4803 25.0312 35.3672 25.0507 35.2775 25.0975C35.176 25.1717 35.0824 25.2536 35.0044 25.3394C35.0044 25.3394 35.0044 25.3394 35.0005 25.3433C34.9849 25.3628 34.9654 25.3784 34.9498 25.3979C34.942 25.4096 34.9303 25.4213 34.9225 25.433C34.9147 25.4408 34.9108 25.4486 34.903 25.4564C34.8367 25.5384 34.7782 25.6281 34.7236 25.7178C34.7197 25.7256 34.7158 25.7295 34.7119 25.7334C34.708 25.7451 34.7002 25.7529 34.6924 25.7646C34.6183 25.9012 34.5636 26.0416 34.5207 26.1821C34.3647 26.7009 34.4349 27.1456 34.5441 27.2549C34.5753 27.2861 35.2931 27.5085 35.7924 27.7308C36.0264 27.8362 36.1902 27.9142 36.3267 28H48.9961V16H49Z" fill="#E0000F"/>
<path d="M36.8631 20.3748C36.9526 20.3982 37.0888 20.3982 37.0888 20.4449C37.0421 20.6241 36.7736 20.6709 36.6375 20.854H36.5674C36.5013 20.9008 36.5208 21.0138 36.4546 21.0138C36.3885 20.9904 36.3185 21.0138 36.2523 21.0371C36.3418 21.1267 36.4546 21.1969 36.5908 21.1735C36.6141 21.1735 36.6569 21.2202 36.6569 21.2631C36.6569 21.2631 36.6803 21.2631 36.7036 21.2397C36.727 21.2397 36.7503 21.2397 36.7503 21.2631V21.3527C36.6842 21.4423 36.5674 21.3995 36.478 21.4189C36.6608 21.4657 36.8398 21.4657 36.9993 21.4189C37.1355 21.3722 36.9993 21.1462 37.0888 21.0332C37.0421 21.0332 37.0888 20.9631 37.0421 20.9631C37.0888 20.9164 37.1316 20.8501 37.1782 20.8267C37.2249 20.8267 37.2911 20.8034 37.3144 20.7566C37.3144 20.7099 37.2249 20.6904 37.2444 20.6436C37.3806 20.554 37.4934 20.4177 37.4467 20.2813C37.4233 20.2112 37.2444 20.2112 37.1316 20.1683C37.0187 20.1254 36.8826 20.1683 36.7464 20.1917C36.6336 20.1917 36.5208 20.2618 36.4079 20.2813C36.2484 20.328 36.1123 20.4177 35.98 20.5073C36.1395 20.441 36.2951 20.4177 36.478 20.3709C36.6141 20.3748 36.727 20.3436 36.8631 20.3748Z" fill="#808080"/>
<path d="M17.236 42V33.6H19.804C21.652 33.6 22.792 34.548 22.792 36.108C22.792 37.128 22.3 37.884 21.436 38.28L24.064 42H22.06L19.816 38.604H18.94V42H17.236ZM19.9 35.016H18.94V37.188H19.9C20.62 37.188 21.04 36.768 21.04 36.084C21.04 35.448 20.62 35.016 19.9 35.016ZM28.5273 32.88H26.9793L28.3353 31.26H30.0873L28.5273 32.88ZM25.3233 42V33.6H30.2193V35.016H27.0273V37.008H29.7393V38.424H27.0273V40.584H30.2193V42H25.3233ZM32.3794 42V33.6H35.1514C36.9994 33.6 38.1274 34.548 38.1274 36.108C38.1274 37.656 36.9994 38.604 35.1514 38.604H34.0834V42H32.3794ZM35.2234 35.016H34.0834V37.188H35.2234C35.9434 37.188 36.3754 36.768 36.3754 36.084C36.3754 35.448 35.9434 35.016 35.2234 35.016ZM44.6705 38.856V33.6H46.3745V38.712C46.3745 40.92 45.0785 42.24 42.9665 42.24C40.8665 42.24 39.5705 40.92 39.5705 38.712V33.6H41.2745V38.856C41.2745 39.984 41.9105 40.644 42.9785 40.644C44.0225 40.644 44.6705 39.984 44.6705 38.856ZM48.6713 42V33.6H51.1433C52.8953 33.6 53.9633 34.464 53.9633 35.88C53.9633 36.564 53.6513 37.152 53.0633 37.536C53.9513 37.932 54.4433 38.652 54.4433 39.528C54.4433 41.064 53.2553 42 51.3233 42H48.6713ZM51.1793 35.016H50.3753V36.912H51.1793C51.8273 36.912 52.2113 36.564 52.2113 35.952C52.2113 35.364 51.8273 35.016 51.1793 35.016ZM51.4193 38.328H50.3753V40.584H51.4193C52.2113 40.584 52.6913 40.164 52.6913 39.456C52.6913 38.736 52.2113 38.328 51.4193 38.328ZM56.3719 42V33.6H58.0759V40.452H61.2679V42H56.3719ZM62.9476 42V33.6H64.6516V42H62.9476ZM74.2234 41.784C74.8714 42.372 75.4474 42.588 75.9874 42.588C76.1674 42.588 76.4074 42.564 76.5874 42.492V43.932C76.3114 44.04 76.0714 44.088 75.6994 44.088C74.7634 44.088 73.8994 43.704 73.0714 42.984L72.0754 42.096C71.7154 42.192 71.3314 42.24 70.9234 42.24C68.2714 42.24 66.4594 40.2 66.4594 37.8C66.4594 35.4 68.2714 33.36 70.9234 33.36C73.5634 33.36 75.3754 35.4 75.3754 37.8C75.3754 39.204 74.7514 40.488 73.7194 41.304L74.2234 41.784ZM70.9234 40.644C72.4954 40.644 73.6234 39.408 73.6234 37.8C73.6234 36.192 72.4954 34.956 70.9234 34.956C69.3394 34.956 68.2114 36.192 68.2114 37.8C68.2114 39.408 69.3394 40.644 70.9234 40.644ZM82.1424 38.856V33.6H83.8464V38.712C83.8464 40.92 82.5504 42.24 80.4384 42.24C78.3384 42.24 77.0424 40.92 77.0424 38.712V33.6H78.7464V38.856C78.7464 39.984 79.3824 40.644 80.4504 40.644C81.4944 40.644 82.1424 39.984 82.1424 38.856ZM86.1432 42V33.6H91.0392V35.016H87.8472V37.008H90.5592V38.424H87.8472V40.584H91.0392V42H86.1432ZM17.236 54V45.6H22.132V47.016H18.94V49.008H21.652V50.424H18.94V54H17.236ZM23.8116 54V45.6H26.3796C28.2276 45.6 29.3676 46.548 29.3676 48.108C29.3676 49.128 28.8756 49.884 28.0116 50.28L30.6396 54H28.6356L26.3916 50.604H25.5156V54H23.8116ZM26.4756 47.016H25.5156V49.188H26.4756C27.1956 49.188 27.6156 48.768 27.6156 48.084C27.6156 47.448 27.1956 47.016 26.4756 47.016ZM31.2062 54L34.3862 45.6H36.6183L39.7982 54H37.9863L37.1823 51.816H33.8223L33.0182 54H31.2062ZM34.3503 50.364H36.6543L35.5023 47.208L34.3503 50.364ZM41.2754 54V45.6H43.4594L47.2154 51.672V45.6H48.9194V54H46.7354L42.9794 47.928V54H41.2754ZM55.1927 52.644C56.1527 52.644 56.9087 52.176 57.3887 51.492L58.7327 52.524C58.0847 53.412 57.0767 54.036 55.8527 54.192L54.8087 55.932H53.2967L54.3527 54.168C52.1687 53.784 50.7287 51.936 50.7287 49.8C50.7287 47.4 52.5407 45.36 55.1927 45.36C56.7167 45.36 57.9647 46.044 58.7327 47.064L57.3887 48.108C56.9087 47.424 56.1527 46.956 55.1927 46.956C53.6087 46.956 52.4807 48.192 52.4807 49.8C52.4807 51.408 53.6087 52.644 55.1927 52.644ZM59.2769 54L62.4569 45.6H64.6889L67.8689 54H66.0569L65.2529 51.816H61.8929L61.0889 54H59.2769ZM62.4209 50.364H64.7249L63.5729 47.208L62.4209 50.364ZM69.346 54V45.6H71.05V54H69.346ZM72.8219 52.836L74.0579 51.696C74.5619 52.344 75.2339 52.728 75.9179 52.728C76.5899 52.728 76.9979 52.368 76.9979 51.768C76.9979 50.22 73.1819 50.64 73.1819 47.796C73.1819 46.464 74.2859 45.36 75.8939 45.36C77.1539 45.36 78.1139 45.924 78.8339 46.776L77.5859 47.904C77.0939 47.268 76.5419 46.848 75.9059 46.848C75.3059 46.848 74.9099 47.232 74.9099 47.736C74.9099 49.26 78.7259 48.828 78.7259 51.708C78.7019 53.292 77.4659 54.24 75.9299 54.24C74.5139 54.24 73.5659 53.724 72.8219 52.836ZM80.6926 54V45.6H85.5886V47.016H82.3966V49.008H85.1086V50.424H82.3966V52.584H85.5886V54H80.6926Z" fill="black"/>
<path fill-rule="evenodd" clip-rule="evenodd" d="M47.18 76.614L46.0638 77.6339H45.7758L46.4359 76.47H47.18V76.614ZM46.3759 80.5614H46.1359C45.8358 80.9213 45.4998 81.2093 45.1757 81.2093C44.8397 81.2093 44.6717 81.0053 44.6717 80.5614C44.6717 80.3814 44.6957 80.1894 44.7317 80.0214L46.688 79.3734C47.072 78.4615 46.6159 78.0655 46.0759 78.0655C45.1517 78.0655 44.0956 79.6854 44.0956 80.9813C44.0956 81.5933 44.3836 81.9293 44.8397 81.9293C45.3678 81.9173 45.9198 81.4013 46.3759 80.5614ZM45.7046 78.5938C45.9686 78.5938 46.1966 78.7978 46.0766 79.2657L44.8644 79.5897C45.0565 79.0138 45.4165 78.5938 45.7046 78.5938ZM41.8886 78.6175H42.5367L41.5045 81.4493C41.4085 81.6893 41.5405 81.9293 41.7925 81.9293C42.5247 81.9293 43.4008 81.3053 43.7368 80.4174H43.5568C43.2928 80.7894 42.7167 81.1973 42.2846 81.2693L43.2328 78.6175H44.2049L44.3249 78.2095H43.3768L43.7368 77.1896H43.3648L42.6927 78.2095L41.8886 78.3175V78.6175ZM40.9878 78.0782C41.1198 78.0782 41.2998 78.2222 41.2158 78.4862L40.0516 81.306C40.3517 81.258 40.6637 80.97 40.8438 80.706H41.0358C40.7597 81.414 40.1356 81.93 39.5956 81.93C39.4636 81.93 39.2715 81.786 39.3675 81.522L40.4477 78.7022C40.1477 78.7502 39.8356 79.0381 39.6556 79.3021H39.4756C39.7516 78.5822 40.4237 78.0782 40.9878 78.0782ZM41.3246 77.3579C41.5647 77.3579 41.7687 77.1659 41.7687 76.9139C41.7687 76.674 41.5647 76.47 41.3246 76.47C41.0726 76.47 40.8806 76.674 40.8806 76.9139C40.8806 77.1539 41.0846 77.3579 41.3246 77.3579ZM36.0797 79.6981C36.3437 79.1221 36.2477 78.8581 36.0797 78.8581C35.9357 78.8581 35.7676 79.0141 35.5996 79.3021H35.4196C35.6956 78.6902 36.0557 78.0782 36.4517 78.0782C36.7878 78.0782 36.9078 78.4142 36.9078 78.7862V79.3141C36.9618 79.2513 37.0144 79.1896 37.0658 79.1293L37.0667 79.1282L37.0675 79.1273C37.5745 78.5324 37.9617 78.0782 38.408 78.0782C38.7561 78.0782 38.9361 78.2942 38.9361 78.6182C38.9361 78.8102 38.8761 79.0501 38.7441 79.3021L37.7479 81.306C38.048 81.258 38.36 80.97 38.54 80.706H38.7201C38.444 81.426 37.7719 81.93 37.2079 81.93C36.9558 81.93 36.8118 81.666 36.9198 81.45L38.072 79.2301C38.204 78.9781 38.228 78.8102 38.024 78.8102C37.7479 78.8102 37.0998 79.2661 36.7518 79.6861L35.9957 81.678C35.9117 81.882 35.8277 81.93 35.6356 81.93C35.3236 81.93 35.1676 81.726 35.3116 81.402L36.0797 79.6981ZM35.2987 78.9294C35.4307 78.4735 35.3587 78.0655 35.0106 78.0655C34.5766 78.0655 34.4407 78.3521 34.02 79.2391L33.9905 79.3014V78.7735C33.9905 78.4015 33.8705 78.0655 33.5344 78.0655C33.1384 78.0655 32.7783 78.6775 32.5023 79.2894H32.6823C32.8743 79.0134 33.0544 78.8455 33.1984 78.8455C33.3664 78.8455 33.4624 79.1094 33.1984 79.6854L32.4303 81.3893C32.2863 81.7133 32.4423 81.9173 32.7543 81.9173C32.9464 81.9173 33.0304 81.8693 33.1144 81.6653L33.8705 79.6734C34.0865 79.4094 34.2785 79.1814 34.5186 78.9294H35.2987ZM31.5064 79.2657C31.6264 78.7978 31.3984 78.5938 31.1344 78.5938C30.8463 78.5938 30.4863 79.0138 30.2942 79.5897L31.5064 79.2657ZM31.8057 80.5614H31.5657C31.2656 80.9213 30.9296 81.2093 30.6055 81.2093C30.2695 81.2093 30.1015 81.0053 30.1015 80.5614C30.1015 80.3814 30.1255 80.1894 30.1615 80.0214L32.1178 79.3734C32.5018 78.4615 32.0458 78.0655 31.5057 78.0655C30.5815 78.0655 29.5254 79.6854 29.5254 80.9813C29.5254 81.5933 29.8134 81.9293 30.2695 81.9293C30.7976 81.9173 31.3497 81.4013 31.8057 80.5614ZM27.9665 78.6175H27.3184V78.3175L28.1225 78.2095L28.7946 77.1896H29.1666L28.8066 78.2095H29.7547L29.6347 78.6175H28.6626L27.7144 81.2693C28.1465 81.1973 28.7226 80.7894 28.9866 80.4174H29.1666C28.8306 81.3053 27.9545 81.9293 27.2224 81.9293C26.9703 81.9293 26.8383 81.6893 26.9343 81.4493L27.9665 78.6175ZM23.8865 80.8136C23.8865 79.9377 24.8586 78.7617 25.3987 78.7617C25.5187 78.7617 25.6387 78.7737 25.7347 78.8097L25.1707 80.3217C24.8466 80.7176 24.3425 81.1976 24.1025 81.1976C23.9705 81.1976 23.8865 81.0776 23.8865 80.8136ZM26.5632 77.8858L26.8632 77.9098L25.8191 80.3097C25.567 80.8856 25.675 81.1496 25.8191 81.1496C25.9631 81.1496 26.1431 80.9816 26.3351 80.7057H26.5152C26.2391 81.3176 25.8791 81.9296 25.483 81.9296C25.147 81.9296 24.9429 81.5696 25.0029 80.9216L25.0269 80.6937L24.9616 80.7849C24.5317 81.3858 24.1427 81.9296 23.7428 81.9296C23.3947 81.9296 23.2147 81.7136 23.2147 81.3896C23.2147 79.9977 24.7389 78.2218 26.1671 78.2218H26.2271L26.5632 77.8858ZM23.814 78.9294C23.946 78.4735 23.874 78.0655 23.526 78.0655C23.0919 78.0655 22.956 78.3521 22.5354 79.2391L22.5058 79.3014V78.7735C22.5058 78.4015 22.3858 78.0655 22.0498 78.0655C21.6537 78.0655 21.2937 78.6775 21.0176 79.2894H21.1976C21.3897 79.0134 21.5697 78.8455 21.7017 78.8455C21.8697 78.8455 21.9658 79.1094 21.7017 79.6854L20.9336 81.4013C20.7896 81.7253 20.9456 81.9293 21.2576 81.9293C21.4497 81.9293 21.5337 81.8813 21.6177 81.6773L22.3738 79.6854C22.5898 79.4214 22.7819 79.1934 23.0219 78.9414H23.814V78.9294ZM18.8684 81.5686L18.7964 81.7846H16L16.072 81.5566C16.9361 81.4006 17.0802 81.3286 17.4402 80.3566L18.2203 78.2688C18.5684 77.2968 18.4964 77.2248 17.7403 77.0688L17.8123 76.8528H21.4488L21.2328 78.0168H20.9687C20.9687 77.3208 20.8967 77.1408 20.2366 77.1408H20.0686C19.4205 77.1408 19.3365 77.2368 19.1565 77.7408L18.6404 79.1447H19.3965C19.9006 79.1447 20.0926 78.8327 20.3206 78.4247H20.5847L19.9606 80.1286H19.6965C19.7565 79.6127 19.7565 79.4087 19.2885 79.4087H18.5324L18.1843 80.3686C17.8081 81.3678 17.9156 81.3882 18.8115 81.5578C18.8301 81.5613 18.8491 81.5649 18.8684 81.5686Z" fill="black"/>
<path fill-rule="evenodd" clip-rule="evenodd" d="M21.2448 67.4341L20.1286 68.2385V68.2505H19.8405L20.5006 67.29H21.2448V67.4341ZM29.0472 73.0648L30.8355 68.3105L30.7755 68.2384L29.5393 68.3825V68.5266L29.7793 68.7066C29.9843 68.8661 29.93 69.0147 29.76 69.4805L29.7313 69.5591L28.3631 73.2089C28.2551 73.425 28.3991 73.6891 28.6511 73.6891C29.2152 73.6891 29.8153 73.1728 30.0914 72.4645H29.9114C29.7193 72.7286 29.3353 73.0168 29.0472 73.0648ZM37.2438 69.403L38.36 68.3825V68.2384H37.6159L36.9558 69.403H37.2438ZM37.315 72.3204H37.5551C37.111 73.1728 36.5589 73.6891 36.0308 73.6891C35.5747 73.6891 35.2867 73.3529 35.2867 72.7406C35.2867 71.444 36.3429 69.8232 37.267 69.8232C37.7951 69.8232 38.2632 70.2194 37.8791 71.1318L35.9108 71.7801C35.8748 71.9482 35.8508 72.1403 35.8508 72.3204C35.8508 72.7646 36.0188 72.9687 36.3549 72.9687C36.6789 72.9687 37.015 72.6806 37.315 72.3204ZM37.2544 71.0238C37.3745 70.5676 37.1464 70.3635 36.8824 70.3635C36.6063 70.3635 36.2463 70.7837 36.0422 71.348L37.2544 71.0238ZM33.7258 70.3872H33.0777V70.0871L33.8818 69.979L34.554 68.9585H34.926L34.566 69.979H35.5141L35.3941 70.3872H34.4219L33.4738 73.0405C33.9058 72.9685 34.4819 72.5603 34.746 72.1881H34.926C34.59 73.0765 33.7138 73.7008 32.9817 73.7008C32.7296 73.7008 32.5976 73.4607 32.6936 73.2206L33.7258 70.3872ZM32.4055 70.2431C32.4775 69.979 32.3095 69.8349 32.1655 69.8349C31.6014 69.8349 30.9292 70.3512 30.6532 71.0595H30.8332C31.0133 70.7954 31.3253 70.5072 31.6254 70.4592L30.5452 73.2806C30.4492 73.5447 30.6412 73.6888 30.7732 73.6888C31.3133 73.6888 31.9374 73.1726 32.2135 72.4642H32.0334C31.8534 72.7283 31.5413 73.0165 31.2413 73.0645L32.4055 70.2431ZM32.9585 68.6826C32.9585 68.9228 32.7544 69.1269 32.5144 69.1269C32.2744 69.1269 32.0703 68.9228 32.0703 68.6826C32.0703 68.4425 32.2624 68.2384 32.5144 68.2384C32.7544 68.2384 32.9585 68.4425 32.9585 68.6826ZM26.8987 70.5315C26.3586 70.5315 25.3864 71.7081 25.3864 72.5846C25.3864 72.8487 25.4704 72.9687 25.6145 72.9687C25.8425 72.9687 26.3466 72.4885 26.6706 72.0923L27.2347 70.5796C27.1267 70.5435 27.0187 70.5315 26.8987 70.5315ZM28.3632 69.6791L28.0632 69.6551L27.7271 69.9913H27.6671C26.2389 69.9913 24.7146 71.7682 24.7146 73.1609C24.7146 73.485 24.8946 73.7011 25.2427 73.7011C25.6426 73.7011 26.0316 73.1571 26.4616 72.5558L26.5269 72.4645L26.5029 72.6926C26.4429 73.3409 26.6469 73.7011 26.983 73.7011C27.3791 73.7011 27.7391 73.0888 28.0152 72.4765H27.8351C27.6431 72.7527 27.4631 72.9207 27.3191 72.9207C27.175 72.9207 27.067 72.6566 27.3191 72.0803L28.3632 69.6791ZM22.3135 73.5692C21.7974 73.7733 21.4373 74.0134 21.4373 74.3856C21.4373 74.7337 21.7614 74.8778 22.4335 74.8778C23.3337 74.8778 23.8258 74.6137 23.8258 74.2655C23.8258 74.1094 23.6217 74.0374 23.0816 73.8573C22.7336 73.7493 22.4815 73.6532 22.3135 73.5692ZM22.9128 72.0924C22.6728 72.0924 22.5888 71.8883 22.5888 71.6722C22.5888 70.9758 22.9248 70.1114 23.4649 70.1114C23.705 70.1114 23.789 70.3155 23.789 70.5316C23.777 71.24 23.4409 72.0924 22.9128 72.0924ZM23.3701 73.2209C24.0302 73.425 24.4383 73.581 24.4383 74.0373C24.4383 74.6255 23.3581 75.3219 22.0499 75.3099C21.2937 75.3099 20.6456 75.1058 20.6456 74.6135C20.6456 74.1453 21.0777 73.7611 22.1339 73.449C21.9899 73.3529 21.9299 73.2329 21.9299 73.0648C21.9299 72.7766 22.1939 72.5485 22.65 72.3324C22.2059 72.2724 21.9178 71.9362 21.9178 71.444C21.9178 70.6876 22.542 69.8232 23.5261 69.8232C23.7302 69.8232 23.9102 69.8712 24.0542 69.9673H25.1344L25.0144 70.3755H24.3783C24.4143 70.4835 24.4383 70.6036 24.4383 70.7356C24.4383 71.468 23.8502 72.3084 22.914 72.3564C22.674 72.4885 22.554 72.6686 22.554 72.8127C22.554 72.9822 22.7503 73.0395 23.1842 73.1662C23.2419 73.183 23.3039 73.2011 23.3701 73.2209ZM19.5646 71.1679C20.0327 71.1679 20.0447 71.372 19.9727 71.8883H20.2367L20.8609 70.1834H20.5968C20.3688 70.5916 20.1767 70.9038 19.6726 70.9038H18.6405L19.1446 69.4991C19.3246 68.9949 19.4086 68.8988 20.0567 68.8988H20.5128C21.1729 68.8988 21.2449 69.0789 21.2449 69.7752H21.509L21.725 68.6107H17.8123L17.7403 68.8268C18.4964 68.9829 18.5684 69.0549 18.2204 70.0274L17.4403 72.1284C17.0802 73.1009 16.9362 73.1729 16.06 73.329L16 73.5571H20.3448L21.1249 72.3205H20.8248C20.3208 72.8127 19.8167 73.269 18.8325 73.269C17.75 73.269 17.7693 73.216 18.0941 72.3234C18.115 72.266 18.1372 72.205 18.1604 72.1404L18.5204 71.1799H19.5646V71.1679Z" fill="black"/>
<path fill-rule="evenodd" clip-rule="evenodd" d="M23.1496 60.8876C23.3896 60.8876 23.5936 60.6837 23.5936 60.4438C23.5936 60.2039 23.3896 60 23.1496 60C22.8977 60 22.7057 60.2039 22.7057 60.4438C22.7057 60.6957 22.8977 60.8876 23.1496 60.8876ZM26.7022 62.3986C26.7022 61.8229 26.5583 61.607 26.1503 61.607C25.6464 61.607 25.1785 62.1467 24.7106 62.7944L25.7184 60.0956L25.6584 60.0117L24.4227 60.1556V60.2996L24.6626 60.4795C24.8716 60.6419 24.811 60.8044 24.633 61.2818L24.6146 61.3311L23.5229 64.1858C23.4269 64.4257 23.3189 64.7136 23.3189 64.7856C23.3189 65.1214 23.7748 65.4453 24.1947 65.4453C25.1305 65.4573 26.7022 63.73 26.7022 62.3986ZM37.1042 61.1752L38.22 60.1556V60.0117H37.4761L36.8163 61.1752H37.1042ZM37.1765 64.0899H37.4164C36.9605 64.9415 36.4086 65.4573 35.8807 65.4453C35.4248 65.4453 35.1369 65.1214 35.1369 64.5097C35.1369 63.2143 36.1927 61.595 37.1165 61.595C37.6444 61.595 38.1123 61.9908 37.7284 62.9024L35.7727 63.5501C35.7368 63.7181 35.7128 63.91 35.7128 64.0899C35.7128 64.5337 35.8807 64.7376 36.2167 64.7376C36.5406 64.7376 36.8765 64.4497 37.1765 64.0899ZM37.1153 62.7945C37.2353 62.3387 37.0073 62.1348 36.7434 62.1348C36.4555 62.1348 36.0955 62.5546 35.9036 63.1184L37.1153 62.7945ZM33.5747 62.1595H32.9268V61.8596L33.7306 61.7516L34.4025 60.7321H34.7744L34.4145 61.7516H35.3623L35.2423 62.1595H34.2705L33.3227 64.8103C33.7546 64.7383 34.3305 64.3305 34.5945 63.9587H34.7744C34.4385 64.8463 33.5627 65.47 32.8308 65.47C32.5789 65.47 32.4469 65.2301 32.5429 64.9902L33.5747 62.1595ZM32.5931 62.4713C32.7251 62.0155 32.6531 61.6077 32.3052 61.6077C31.8713 61.6077 31.7354 61.8942 31.3149 62.7809L31.2854 62.8431V62.3154C31.2854 61.9435 31.1654 61.6077 30.8295 61.6077C30.4336 61.6077 30.0736 62.2194 29.7977 62.8311H29.9776C30.1696 62.5553 30.3496 62.3873 30.4815 62.3873C30.6495 62.3873 30.7455 62.6512 30.4815 63.227L29.7137 64.9302C29.5697 65.2541 29.7257 65.458 30.0376 65.458C30.2296 65.458 30.3136 65.41 30.3976 65.2061L31.1534 63.215C31.3694 62.9511 31.5613 62.7232 31.8013 62.4713H32.5931ZM28.7902 62.7945C28.9101 62.3387 28.6822 62.1348 28.4182 62.1348C28.1303 62.1348 27.7823 62.5546 27.5784 63.1184L28.7902 62.7945ZM29.0893 64.0899H28.8494C28.5495 64.4497 28.2135 64.7376 27.8896 64.7376C27.5536 64.7376 27.3857 64.5337 27.3857 64.0899C27.3857 63.91 27.4097 63.7181 27.4457 63.5501L29.4013 62.9024C29.7852 61.9908 29.3293 61.595 28.7894 61.595C27.8656 61.595 26.8098 63.2143 26.8098 64.5097C26.8098 65.1214 27.0977 65.4453 27.5536 65.4453C28.0815 65.4573 28.6334 64.9415 29.0893 64.0899ZM24.0512 64.5461C24.0512 64.702 24.3272 64.882 24.5191 64.882C25.299 64.882 26.0308 63.4786 26.0188 62.6989C26.0188 62.435 25.8869 62.3271 25.7069 62.3271C25.419 62.3271 24.8911 62.7589 24.5551 63.1667L24.2432 64.0064C24.1352 64.2822 24.0512 64.4981 24.0512 64.5461ZM22.7917 61.6077C22.9357 61.6077 23.1036 61.7516 23.0316 62.0155L21.8799 64.8343C22.1798 64.7863 22.4917 64.4984 22.6717 64.2345H22.8517C22.5757 64.9422 21.9518 65.458 21.4119 65.458C21.268 65.458 21.076 65.314 21.172 65.0502L22.2518 62.2314C21.9518 62.2794 21.6399 62.5673 21.4599 62.8311H21.28C21.5559 62.1235 22.2278 61.6077 22.7917 61.6077ZM17.8116 60.3602H20.3911L20.3192 60.5881C19.4433 60.744 19.2994 60.816 18.9394 61.7876L18.1716 63.8986C17.7997 64.9062 17.8956 65.0261 18.5555 65.0261C19.3708 65.0261 19.9053 64.4337 20.3721 63.9164C20.4068 63.878 20.4411 63.84 20.4751 63.8027H20.7751L19.9232 65.314H16L16.072 65.0981C16.9358 64.9422 17.0798 64.8702 17.4397 63.8986L18.2196 61.7756C18.5675 60.804 18.4955 60.732 17.7397 60.5761L17.8116 60.3602Z" fill="black"/>
<path d="M175.422 30.8127V68.0002H165.195V49.9534L157.703 58.4299H154.641L147.148 49.9534V68.0002H136.922V30.8127H140.531L156.172 46.6721L171.812 30.8127H175.422Z" fill="#FA7659"/>
<path d="M220.023 30.5393C222.174 30.5393 224.289 30.8127 226.367 31.3596C228.482 31.87 230.177 32.5627 231.453 33.4377V43.3362C229.885 42.4247 228.336 41.6409 226.805 40.9846C225.273 40.2919 223.469 39.9456 221.391 39.9456C220.188 39.9456 219.148 40.1278 218.273 40.4924C217.398 40.857 216.961 41.4586 216.961 42.2971C216.961 43.2086 217.49 43.9013 218.547 44.3752C219.604 44.8127 220.898 45.3232 222.43 45.9065L226.367 47.3831C229.029 48.4039 230.906 49.7893 232 51.5393C233.13 53.2893 233.695 55.0393 233.695 56.7893C233.695 59.1226 233.021 61.2008 231.672 63.0237C230.323 64.8101 228.5 66.232 226.203 67.2893C223.906 68.3101 221.336 68.8206 218.492 68.8206C216.305 68.8206 214.135 68.4377 211.984 67.6721C209.833 66.9065 207.956 65.9586 206.352 64.8284V54.9299C208.102 56.2424 209.979 57.318 211.984 58.1565C214.026 58.995 216.068 59.4143 218.109 59.4143C219.385 59.4143 220.406 59.2685 221.172 58.9768C221.974 58.6487 222.375 58.1018 222.375 57.3362C222.375 56.7893 222.083 56.3153 221.5 55.9143C220.917 55.5133 220.133 55.1669 219.148 54.8752L213.953 53.2346C211.911 52.5784 210.326 51.6851 209.195 50.5549C208.065 49.4247 207.281 48.1669 206.844 46.7815C206.406 45.3596 206.188 43.9195 206.188 42.4612C206.188 39.8726 206.844 37.7034 208.156 35.9534C209.469 34.1669 211.182 32.818 213.297 31.9065C215.411 30.995 217.654 30.5393 220.023 30.5393Z" fill="#5BB5A7"/>
<path d="M193.429 30.7053C195.321 30.7053 197.158 31.0208 198.939 31.6516C200.758 32.2825 202.391 33.2102 203.838 34.4348C205.285 35.6594 206.436 37.1438 207.289 38.8879C208.18 40.6321 208.625 42.5989 208.625 44.7883C208.625 47.6458 207.957 50.1135 206.621 52.1917C205.285 54.2327 203.541 55.7913 201.389 56.8674C199.236 57.9436 196.954 58.4817 194.542 58.4817C193.132 58.4817 191.87 58.3518 190.757 58.092C189.644 57.7952 188.679 57.4241 187.862 56.9788V68.0002H177.453V30.7053H193.429ZM187.862 40.4465V49.0745C188.493 49.2971 189.161 49.4827 189.866 49.6311C190.608 49.7795 191.388 49.8538 192.204 49.8538C193.837 49.8538 195.191 49.3528 196.268 48.3508C197.381 47.3118 197.938 46.1243 197.938 44.7883C197.938 43.2668 197.381 42.1721 196.268 41.5042C195.191 40.7991 193.837 40.4465 192.204 40.4465H187.862Z" fill="#000091"/>
</svg>
