<?xml version="1.0" encoding="UTF-8"?>
<svg id="Layer_1" data-name="Layer 1" xmlns="http://www.w3.org/2000/svg" width="4.5cm" height="4.5cm" version="1.1" viewBox="0 0 128 128">
  <defs>
    <style>
      .cls-1 {
        fill: #fff;
        stroke-width: 0px;
      }
    </style>
  </defs>
  <path class="cls-1" d="M64,122.3c-.7,0-1.5,0-2.2,0v-3.6c1.3,0,2.5,0,3.6,0v3.6c-.4,0-.9,0-1.4,0ZM69.3,122.1l-.3-3.6c1.2-.1,2.3-.3,3.5-.4l.6,3.6c-1.2.2-2.5.3-3.7.5ZM58.1,122c-1.2-.1-2.5-.3-3.7-.5l.6-3.6c1.1.2,2.3.4,3.5.5l-.4,3.6ZM76.7,120.9l-.8-3.6c1.1-.3,2.3-.6,3.4-.9l1,3.5c-1.2.4-2.4.7-3.6.9ZM50.7,120.7c-1.2-.3-2.4-.6-3.6-1l1.1-3.5c1.1.3,2.2.6,3.4.9l-.8,3.6ZM83.9,118.8l-1.3-3.4c1.1-.4,2.2-.8,3.2-1.3l1.5,3.3c-1.1.5-2.3,1-3.5,1.4ZM43.5,118.5c-1.2-.4-2.3-.9-3.5-1.4l1.5-3.3c1.1.5,2.2.9,3.2,1.4l-1.3,3.4ZM90.7,115.7l-1.7-3.2c1-.5,2.1-1.1,3.1-1.7l1.9,3.1c-1.1.6-2.2,1.3-3.3,1.8ZM36.7,115.4c-1.1-.6-2.2-1.2-3.2-1.9l1.9-3.1c1,.6,2,1.2,3,1.8l-1.7,3.2ZM97.1,111.9l-2.1-3c.9-.7,1.9-1.4,2.8-2.1l2.3,2.8c-1,.8-2,1.5-3,2.2ZM30.4,111.5c-1-.7-2-1.5-3-2.3l2.3-2.8c.9.7,1.8,1.5,2.8,2.1l-2.1,3ZM102.9,107.2l-2.5-2.7c.9-.8,1.7-1.6,2.5-2.4l2.6,2.5c-.9.9-1.8,1.8-2.7,2.6ZM24.6,106.7c-.9-.9-1.8-1.7-2.6-2.6l2.7-2.5c.8.8,1.6,1.7,2.5,2.5l-2.5,2.7ZM108.1,101.8l-2.8-2.4c.8-.9,1.5-1.8,2.2-2.8l2.9,2.2c-.7,1-1.5,2-2.3,2.9ZM19.5,101.2c-.8-1-1.6-2-2.3-3l3-2.1c.7.9,1.4,1.9,2.1,2.8l-2.8,2.3ZM112.6,95.8l-3.1-2c.6-1,1.2-2,1.8-3l3.2,1.8c-.6,1.1-1.3,2.2-1.9,3.2ZM15.1,95.2c-.7-1-1.3-2.1-1.9-3.2l3.2-1.7c.6,1,1.2,2,1.8,3l-3.1,1.9ZM116.2,89.2l-3.3-1.6c.5-1,1-2.1,1.4-3.2l3.4,1.4c-.5,1.2-1,2.3-1.5,3.4ZM11.5,88.6c-.5-1.1-1-2.3-1.5-3.4l3.4-1.3c.4,1.1.9,2.2,1.4,3.2l-3.3,1.5ZM119,82.3l-3.5-1.1c.4-1.1.7-2.2,1-3.4l3.5.9c-.3,1.2-.7,2.4-1.1,3.6ZM8.8,81.7c-.4-1.2-.7-2.4-1-3.6l3.5-.9c.3,1.1.6,2.3,1,3.4l-3.5,1.1ZM120.9,75l-3.6-.7c.2-1.1.4-2.3.6-3.5l3.6.5c-.2,1.2-.4,2.5-.6,3.7ZM7,74.4c-.2-1.2-.4-2.5-.5-3.7l3.6-.4c.1,1.2.3,2.3.5,3.5l-3.6.6ZM121.8,67.6l-3.6-.2c0-1.2.1-2.3.1-3.5h3.7c0,1.2,0,2.5-.1,3.7ZM6.1,67c0-1,0-2.1,0-3.1v-.7s3.7,0,3.7,0v.6c0,1,0,1.9,0,2.9l-3.6.2ZM118.2,61.6c0-1.2-.1-2.3-.3-3.5l3.6-.4c.1,1.2.2,2.5.3,3.7h-3.6ZM9.9,59.8l-3.6-.3c0-1.2.2-2.5.4-3.7l3.6.5c-.2,1.2-.3,2.3-.4,3.5ZM117.5,54.6c-.2-1.2-.4-2.3-.7-3.4l3.6-.8c.3,1.2.5,2.4.7,3.7l-3.6.6ZM10.8,52.8l-3.6-.7c.2-1.2.5-2.4.9-3.6l3.5,1c-.3,1.1-.6,2.3-.8,3.4ZM115.9,47.8c-.3-1.1-.7-2.2-1.1-3.3l3.4-1.3c.4,1.2.8,2.4,1.2,3.5l-3.5,1.1ZM12.7,46l-3.5-1.2c.4-1.2.8-2.4,1.3-3.5l3.4,1.4c-.4,1.1-.9,2.2-1.2,3.3ZM113.4,41.2c-.5-1.1-1-2.1-1.5-3.1l3.2-1.7c.6,1.1,1.1,2.2,1.6,3.4l-3.3,1.5ZM15.3,39.6l-3.3-1.6c.6-1.1,1.1-2.2,1.8-3.3l3.2,1.8c-.6,1-1.1,2.1-1.7,3.1ZM110.2,35c-.6-1-1.3-2-1.9-2.9l3-2.1c.7,1,1.4,2.1,2.1,3.1l-3.1,1.9ZM18.8,33.5l-3-2c.7-1,1.4-2.1,2.2-3.1l2.9,2.2c-.7.9-1.4,1.9-2,2.9ZM106.1,29.3c-.7-.9-1.5-1.8-2.3-2.7l2.7-2.5c.8.9,1.7,1.9,2.4,2.8l-2.8,2.3ZM23.1,27.9l-2.8-2.4c.8-.9,1.7-1.9,2.5-2.8l2.6,2.6c-.8.8-1.6,1.7-2.4,2.6ZM101.4,24.2c-.8-.8-1.7-1.6-2.6-2.3l2.4-2.8c1,.8,1.9,1.6,2.8,2.5l-2.5,2.6ZM28,22.9l-2.4-2.7c.9-.8,1.9-1.6,2.9-2.4l2.3,2.9c-.9.7-1.8,1.5-2.7,2.3ZM96,19.6c-.9-.7-1.9-1.4-2.9-2l2-3.1c1,.7,2.1,1.4,3.1,2.1l-2.2,2.9ZM33.5,18.6l-2.1-3c1-.7,2.1-1.4,3.2-2l1.9,3.1c-1,.6-2,1.2-3,1.9ZM90.1,15.9c-1-.6-2.1-1.1-3.1-1.6l1.6-3.3c1.1.5,2.2,1.1,3.3,1.7l-1.8,3.2ZM39.6,15l-1.7-3.3c1.1-.6,2.2-1.1,3.4-1.6l1.4,3.4c-1.1.5-2.1,1-3.2,1.5ZM83.7,12.9c-1.1-.4-2.2-.8-3.3-1.2l1.1-3.5c1.2.4,2.4.8,3.5,1.3l-1.3,3.4ZM46,12.2l-1.2-3.4c1.2-.4,2.4-.8,3.6-1.1l1,3.5c-1.1.3-2.2.7-3.3,1.1ZM77.1,10.7c-1.1-.3-2.3-.5-3.4-.7l.6-3.6c1.2.2,2.5.5,3.7.8l-.9,3.5ZM52.7,10.3l-.8-3.6c1.2-.3,2.5-.5,3.7-.7l.5,3.6c-1.1.2-2.3.4-3.5.6ZM70.2,9.5c-1.2-.1-2.3-.2-3.5-.3l.2-3.6c1.2,0,2.5.2,3.7.3l-.4,3.6ZM59.7,9.3l-.3-3.6c1.2,0,2.5-.2,3.7-.2v3.7c-1.1,0-2.3,0-3.4.2Z"/>
  <g>
    <g>
      <path class="cls-1" d="M64,108.3c-.4,0-.9-.2-1.2-.5l-46.3-42.4c-.6-.5-.7-1.3-.5-2,.3-.7.9-1.2,1.7-1.2h92.6c.8,0,1.4.5,1.7,1.2.3.7,0,1.5-.5,2l-46.3,42.4c-.3.3-.8.5-1.2.5ZM22.4,66l41.6,38.1,41.6-38.1H22.4Z"/>
      <path class="cls-1" d="M64,108.3h0c-.7,0-1.3-.4-1.6-1l-20.4-42.4c-.3-.6-.2-1.2,0-1.8.3-.5.9-.9,1.5-.9h40.8c.6,0,1.2.3,1.5.9s.4,1.2,0,1.8l-20.4,42.4c-.3.6-.9,1-1.6,1ZM46.5,66l17.5,36.3,17.5-36.3h-35Z"/>
    </g>
    <g>
      <path class="cls-1" d="M110.3,66.1H17.7c-.7,0-1.3-.4-1.6-1s-.2-1.4.2-1.9l12.7-16.6c.3-.4.9-.7,1.4-.7h67.2c.6,0,1.1.3,1.4.7l12.7,16.6c.4.6.5,1.3.2,1.9-.3.6-.9,1-1.6,1ZM21.4,62.4h85.2l-9.9-12.9H31.3l-9.9,12.9Z"/>
      <path class="cls-1" d="M84.4,66.1h-40.8l-1.2-3.2,20.4-16.7h2.3l20.4,16.7-1.2,3.2ZM48.7,62.4h30.6l-15.3-12.5-15.3,12.5Z"/>
      <path class="cls-1" d="M43.4,66.1h-25.7c-.7,0-1.3-.4-1.6-1s-.2-1.4.2-1.9l12.7-16.6c.7-.9,2.2-.9,2.9,0l13,16.6c.4.6.5,1.3.2,1.9s-.9,1-1.6,1ZM21.4,62.4h18.3l-9.2-11.8-9.1,11.8Z"/>
      <path class="cls-1" d="M110.3,66.1h-25.7c-.7,0-1.3-.4-1.6-1-.3-.6-.2-1.4.2-1.9l13-16.6c.7-.9,2.2-.9,2.9,0l12.7,16.6c.4.6.5,1.3.2,1.9-.3.6-.9,1-1.6,1ZM88.3,62.4h18.3l-9.1-11.8-9.2,11.8Z"/>
    </g>
  </g>
  <g>
    <rect class="cls-1" x="63.8" y="23.2" width="19.3" height="3.7" transform="translate(4 59.5) rotate(-45.2)"/>
    <rect class="cls-1" x="71.6" y="15.3" width="3.7" height="19.3" transform="translate(3.7 58.9) rotate(-44.8)"/>
  </g>
  <g>
    <rect class="cls-1" x="42.5" y="32" width="12" height="3.7" transform="translate(-9.7 44.4) rotate(-45.2)"/>
    <rect class="cls-1" x="46.7" y="27.8" width="3.7" height="12" transform="translate(-9.8 44) rotate(-44.8)"/>
  </g>
</svg>