<?xml version="1.0"?>
<svg width="144" height="55" xmlns="http://www.w3.org/2000/svg" xmlns:svg="http://www.w3.org/2000/svg">
 <g class="layer">
  <title>Layer 1</title>
  <rect fill="#fff20a" height="23" id="svg_5" rx="10" ry="10" stroke="null" stroke-dasharray="null" stroke-linecap="null" stroke-linejoin="null" stroke-opacity="null" width="58" x="85.58" y="1.41"/>
  <path d="m38.5,17.22l0,37.19l-10.22,0l0,-18.05l-7.5,8.48l-3.06,0l-7.49,-8.48l0,18.05l-10.23,0l0,-37.19l3.61,0l15.64,15.86l15.64,-15.86l3.61,0z" fill="#FA7659" id="svg_1"/>
  <path d="m83.1,16.95c2.15,0 4.27,0.27 6.35,0.82c2.11,0.51 3.81,1.2 5.08,2.08l0,9.9c-1.56,-0.92 -3.11,-1.7 -4.65,-2.36c-1.53,-0.69 -3.33,-1.03 -5.41,-1.03c-1.2,0 -2.24,0.18 -3.12,0.54c-0.87,0.37 -1.31,0.97 -1.31,1.81c0,0.91 0.53,1.6 1.59,2.08c1.05,0.43 2.35,0.94 3.88,1.53l3.94,1.47c2.66,1.02 4.54,2.41 5.63,4.16c1.13,1.75 1.7,3.5 1.7,5.25c0,2.33 -0.68,4.41 -2.03,6.23c-1.35,1.79 -3.17,3.21 -5.47,4.27c-2.29,1.02 -4.86,1.53 -7.71,1.53c-2.19,0 -4.35,-0.38 -6.51,-1.15c-2.15,-0.76 -4.02,-1.71 -5.63,-2.84l0,-9.9c1.75,1.31 3.63,2.39 5.63,3.23c2.05,0.83 4.09,1.25 6.13,1.25c1.28,0 2.3,-0.14 3.06,-0.43c0.8,-0.33 1.21,-0.88 1.21,-1.64c0,-0.55 -0.3,-1.02 -0.88,-1.43c-0.58,-0.4 -1.37,-0.74 -2.35,-1.03l-5.2,-1.65c-2.04,-0.65 -3.62,-1.55 -4.75,-2.68c-1.13,-1.13 -1.92,-2.38 -2.36,-3.77c-0.43,-1.42 -0.65,-2.86 -0.65,-4.32c0,-2.59 0.65,-4.76 1.97,-6.51c1.31,-1.78 3.02,-3.13 5.14,-4.04c2.11,-0.92 4.35,-1.37 6.72,-1.37z" fill="#5BB5A7" id="svg_2"/>
  <path d="m56.51,17.12c1.89,0 3.73,0.31 5.51,0.94c1.82,0.63 3.45,1.56 4.9,2.78c1.45,1.23 2.6,2.71 3.45,4.46c0.89,1.74 1.34,3.71 1.34,5.9c0,2.86 -0.67,5.32 -2.01,7.4c-1.33,2.04 -3.08,3.6 -5.23,4.68c-2.15,1.07 -4.44,1.61 -6.85,1.61c-1.41,0 -2.67,-0.13 -3.78,-0.39c-1.12,-0.3 -2.08,-0.67 -2.9,-1.11l0,11.02l-10.41,0l0,-37.29l15.98,0zm-5.57,9.74l0,8.62c0.63,0.23 1.3,0.41 2.01,0.56c0.74,0.15 1.52,0.22 2.33,0.22c1.64,0 2.99,-0.5 4.07,-1.5c1.11,-1.04 1.67,-2.23 1.67,-3.56c0,-1.52 -0.56,-2.62 -1.67,-3.29c-1.08,-0.7 -2.43,-1.05 -4.07,-1.05l-4.34,0z" fill="#000091" id="svg_3"/>
  <text fill="#000000" font-family="Sans-serif" font-size="20" font-style="normal" font-weight="bold" id="svg_4" stroke="#000000" stroke-width="0" text-anchor="middle" x="113.58" xml:space="preserve" y="18.41">beta</text>
 </g>
</svg>